# xmcd
#
# Track frame offsets:
#	182
#	23832
#	44935
#	81742
#	97525
#	114552
#	132010
#	151010
#	165157
#	183322
#	204180
#	222817
#
# Disc length: 3260 seconds
#
# Revision: 0
# Processed by: cddbd v1.5.1PL0 Copyright (c) Steve Scherf et al.
# Submitted via: dBpowerAMP V4.0
#
DISCID=900cba0c
DTITLE=Antônio Carlos e Jocafi - Samba, Prazer e Mistério
DYEAR=1900
DGENRE=
TTITLE0=Você Abusou
TTITLE1=Desacato/Tamanco Malandrinho
TTITLE2=Pot-Pourri/A Flor e o Espinho/Não deixe o Samba Morrer/O que é, o que é/etc...
TTITLE3=Samba,Prazer e Mistério
TTITLE4=Eu quero botar meu bloco na rua
TTITLE5=Teimosia
TTITLE6=Dona da casa
TTITLE7=Mas Que Doidice
TTITLE8=Negócio de Cumadre
TTITLE9=Pot/Pourri/Minhas Razões...
TTITLE10=Vá Brincando
TTITLE11=Agua viva
EXTD=Samba, Prazer e Mistério
EXTT0=
EXTT1=
EXTT2=
EXTT3=
EXTT4=
EXTT5=
EXTT6=
EXTT7=
EXTT8=
EXTT9=
EXTT10=
EXTT11=
PLAYORDER=
